<svg id="Calque_1" data-name="Calque 1" xmlns="http://www.w3.org/2000/svg" viewBox="0 0 616.64 963.38"><defs><style>.cls-1{fill:#1d1d1b;}.cls-2{fill:#e52421;}.cls-3{fill:none;}</style></defs><polygon class="cls-1" points="403.99 187.12 403.99 408.36 213.83 408.36 213.83 244.89 213.83 232.07 213.83 187.12 63.61 187.12 19.73 187.12 0 187.12 0 963.38 63.61 963.38 63.61 244.89 151.85 244.89 151.85 466.14 182.84 466.14 213.83 466.14 403.99 466.14 407.92 466.14 465.97 466.14 465.97 187.12 403.99 187.12"/><polygon class="cls-2" points="212.65 776.26 212.65 555.01 402.82 555.01 402.82 718.48 402.82 731.3 402.82 776.26 553.03 776.26 596.91 776.26 616.64 776.26 616.64 0 553.03 0 553.03 718.48 464.8 718.48 464.8 497.24 433.81 497.24 402.82 497.24 212.65 497.24 208.72 497.24 150.67 497.24 150.67 776.26 212.65 776.26"/><rect class="cls-3" width="616.64" height="963.38"/></svg>